# MagicaVoxel @ Ephtracy

# group
o 

# material
mtllib NoRoad2.mtl
usemtl palette

# normals
vn -1 0 0
vn 1 0 0
vn 0 0 1
vn 0 0 -1
vn 0 -1 0
vn 0 1 0

# texcoords
vt 0.845703 0.5
vt 0.849609 0.5
vt 0.853516 0.5
vt 0.857422 0.5
vt 0.861328 0.5
vt 0.865234 0.5
vt 0.869141 0.5

# verts
v -0.4 0 0.4
v -0.4 0 -0.4
v -0.4 0.3 0.4
v -0.4 0.3 -0.4
v 0.4 0 0.4
v 0.4 0 -0.4
v 0.4 0.3 0.4
v 0.4 0.3 -0.4
v -0.4 0 0.4
v -0.4 0.3 0.4
v 0.4 0 0.4
v 0.4 0.3 0.4
v -0.4 0 -0.4
v -0.4 0.3 -0.4
v 0.4 0 -0.4
v 0.4 0.3 -0.4
v -0.4 0 0.4
v 0.4 0 0.4
v -0.4 0 -0.4
v 0.4 0 -0.4
v -0.4 0.3 0.4
v 0.4 0.3 0.4
v -0.3 0.3 0.3
v -0.2 0.3 0.3
v -0.1 0.3 0.3
v 0 0.3 0.3
v 0.2 0.3 0.3
v 0.3 0.3 0.3
v -0.3 0.3 0.2
v -0.2 0.3 0.2
v -0.1 0.3 0.2
v 0 0.3 0.2
v 0.1 0.3 0.2
v 0.2 0.3 0.2
v 0.3 0.3 0.2
v -0.3 0.3 0.1
v -0.2 0.3 0.1
v -0.1 0.3 0.1
v 0.1 0.3 0.1
v 0.3 0.3 0.1
v -0.3 0.3 0
v -0.2 0.3 0
v -0.1 0.3 0
v 0 0.3 0
v 0.2 0.3 0
v 0.3 0.3 0
v -0.3 0.3 -0.1
v -0.2 0.3 -0.1
v -0.1 0.3 -0.1
v 0 0.3 -0.1
v 0.1 0.3 -0.1
v 0.2 0.3 -0.1
v 0.3 0.3 -0.1
v -0.3 0.3 -0.2
v -0.2 0.3 -0.2
v 0 0.3 -0.2
v 0.1 0.3 -0.2
v 0.2 0.3 -0.2
v 0.3 0.3 -0.2
v -0.3 0.3 -0.3
v -0.2 0.3 -0.3
v 0 0.3 -0.3
v 0.2 0.3 -0.3
v 0.3 0.3 -0.3
v -0.4 0.3 -0.4
v 0.4 0.3 -0.4

# faces
f 3/1/1 2/1/1 1/1/1
f 4/1/1 2/1/1 3/1/1
f 5/1/2 6/1/2 7/1/2
f 7/1/2 6/1/2 8/1/2
f 11/1/3 10/1/3 9/1/3
f 12/1/3 10/1/3 11/1/3
f 13/1/4 14/1/4 15/1/4
f 15/1/4 14/1/4 16/1/4
f 19/1/5 18/1/5 17/1/5
f 20/1/5 18/1/5 19/1/5
f 21/1/6 22/1/6 23/1/6
f 23/1/6 22/1/6 24/1/6
f 24/1/6 22/1/6 25/1/6
f 25/1/6 22/1/6 26/1/6
f 26/1/6 22/1/6 27/1/6
f 27/1/6 22/1/6 28/1/6
f 21/1/6 23/1/6 29/1/6
f 23/2/6 24/2/6 29/2/6
f 24/4/6 25/4/6 30/4/6
f 29/2/6 24/2/6 30/2/6
f 25/1/6 26/1/6 31/1/6
f 30/4/6 25/4/6 31/4/6
f 26/4/6 27/4/6 32/4/6
f 31/1/6 26/1/6 32/1/6
f 32/4/6 27/4/6 33/4/6
f 27/2/6 28/2/6 34/2/6
f 33/4/6 27/4/6 34/4/6
f 28/1/6 22/1/6 35/1/6
f 34/2/6 28/2/6 35/2/6
f 21/1/6 29/1/6 36/1/6
f 29/6/6 30/6/6 36/6/6
f 30/3/6 31/3/6 37/3/6
f 36/6/6 30/6/6 37/6/6
f 31/4/6 32/4/6 38/4/6
f 37/3/6 31/3/6 38/3/6
f 33/4/6 34/4/6 39/4/6
f 32/5/6 33/5/6 39/5/6
f 34/4/6 35/4/6 39/4/6
f 35/1/6 22/1/6 40/1/6
f 39/4/6 35/4/6 40/4/6
f 36/7/6 37/7/6 41/7/6
f 21/1/6 36/1/6 41/1/6
f 37/5/6 38/5/6 42/5/6
f 41/7/6 37/7/6 42/7/6
f 38/4/6 32/4/6 43/4/6
f 42/5/6 38/5/6 43/5/6
f 32/5/6 39/5/6 44/5/6
f 43/4/6 32/4/6 44/4/6
f 39/5/6 40/5/6 44/5/6
f 44/5/6 40/5/6 45/5/6
f 40/1/6 22/1/6 46/1/6
f 45/5/6 40/5/6 46/5/6
f 41/1/6 42/1/6 47/1/6
f 21/1/6 41/1/6 47/1/6
f 42/5/6 43/5/6 48/5/6
f 47/1/6 42/1/6 48/1/6
f 43/1/6 44/1/6 49/1/6
f 48/5/6 43/5/6 49/5/6
f 44/5/6 45/5/6 50/5/6
f 49/1/6 44/1/6 50/1/6
f 50/5/6 45/5/6 51/5/6
f 45/1/6 46/1/6 52/1/6
f 51/5/6 45/5/6 52/5/6
f 46/1/6 22/1/6 53/1/6
f 52/1/6 46/1/6 53/1/6
f 21/1/6 47/1/6 54/1/6
f 47/2/6 48/2/6 54/2/6
f 50/5/6 51/5/6 55/5/6
f 54/2/6 48/2/6 55/2/6
f 48/5/6 49/5/6 55/5/6
f 49/5/6 50/5/6 55/5/6
f 55/5/6 51/5/6 56/5/6
f 51/3/6 52/3/6 57/3/6
f 56/5/6 51/5/6 57/5/6
f 52/3/6 53/3/6 57/3/6
f 57/3/6 53/3/6 58/3/6
f 53/1/6 22/1/6 59/1/6
f 58/3/6 53/3/6 59/3/6
f 21/1/6 54/1/6 60/1/6
f 54/3/6 55/3/6 60/3/6
f 55/4/6 56/4/6 61/4/6
f 60/3/6 55/3/6 61/3/6
f 57/2/6 58/2/6 62/2/6
f 61/4/6 56/4/6 62/4/6
f 56/2/6 57/2/6 62/2/6
f 58/4/6 59/4/6 63/4/6
f 62/2/6 58/2/6 63/2/6
f 59/1/6 22/1/6 64/1/6
f 63/4/6 59/4/6 64/4/6
f 21/1/6 60/1/6 65/1/6
f 62/1/6 63/1/6 65/1/6
f 63/1/6 64/1/6 65/1/6
f 61/1/6 62/1/6 65/1/6
f 60/1/6 61/1/6 65/1/6
f 64/1/6 22/1/6 66/1/6
f 65/1/6 64/1/6 66/1/6
